<svg xmlns="http://www.w3.org/2000/svg" width="22.758" height="22.751" viewBox="0 0 22.758 22.751">
  <path id="Path_19" data-name="Path 19" d="M11.384,0A11.376,11.376,0,1,1,0,11.346,11.382,11.382,0,0,1,11.384,0Zm.562,7.994c-.007.021-.011.042-.018.063H8.292a.742.742,0,0,0-.741.6.73.73,0,0,0,.457.819,1.315,1.315,0,0,0,.439.06c1.184,0,2.368,0,3.552,0h.3a1.541,1.541,0,0,1-.035.235,2,2,0,0,1-1.332,1.4,2.869,2.869,0,0,1-.812.116c-.608.018-1.216,0-1.824.007a.725.725,0,0,0-.727.467.738.738,0,0,0,.193.843c.126.13.249.264.376.394q1.818,1.918,3.633,3.833a.79.79,0,0,0,.647.285.706.706,0,0,0,.639-.453.741.741,0,0,0-.183-.847q-1.328-1.4-2.656-2.8c-.056-.06-.109-.123-.183-.2a3.687,3.687,0,0,0,3.83-3.289c.126,0,.26.011.394,0a.719.719,0,0,0,.682-.78.73.73,0,0,0-.724-.7c-.179,0-.362,0-.538,0-.155-.306-.3-.6-.464-.921h.33c.26-.007.524.007.78-.025a.709.709,0,0,0,.615-.791.729.729,0,0,0-.7-.678H8.39a1.31,1.31,0,0,0-.351.032.739.739,0,0,0-.531.777.721.721,0,0,0,.7.671c.654.011,1.311,0,1.964.007a2.1,2.1,0,0,1,1.767.868Z" transform="translate(0)" fill="#e53726"/>
</svg>
