<?xml version="1.0" encoding="UTF-8"?>
<svg width="9px" height="13px" viewBox="0 0 9 13" version="1.1" xmlns="http://www.w3.org/2000/svg" xmlns:xlink="http://www.w3.org/1999/xlink">
    <!-- Generator: Sketch 55.1 (78136) - https://sketchapp.com -->
    <title>down-arrow copy 13</title>
    <desc>Created with Sketch.</desc>
    <g id="Symbols" stroke="none" stroke-width="1" fill="none" fill-rule="evenodd">
        <g id="Download" transform="translate(-13.000000, -5.000000)" fill="#FFFFFF">
            <g id="down-arrow-copy-13" transform="translate(13.000000, 5.000000)">
                <g id="Group">
                    <path d="M4.57739308,12.3503055 L8.08553971,8.84215886 C8.3299389,8.59775967 8.3299389,8.20570265 8.08553971,7.96130346 C7.84114053,7.71690428 7.4490835,7.71690428 7.20468432,7.96130346 L4.76069246,10.4052953 L4.76069246,1.06211813 C4.76069246,0.715885947 4.48065173,0.435845214 4.13441955,0.435845214 C3.78818737,0.435845214 3.50814664,0.715885947 3.50814664,1.06211813 L3.50814664,10.4002037 L1.06415479,7.95621181 C0.819755601,7.71181263 0.427698574,7.71181263 0.183299389,7.95621181 C-0.0610997963,8.200611 -0.0610997963,8.59266802 0.183299389,8.83706721 L3.69144603,12.3452138 C3.81364562,12.4674134 3.97148676,12.5285132 4.13441955,12.5285132 C4.29735234,12.5285132 4.45519348,12.4725051 4.57739308,12.3503055 L4.57739308,12.3503055 Z" id="Shape"></path>
                </g>
            </g>
        </g>
    </g>
</svg>