<?xml version="1.0" encoding="utf-8"?>
<!-- Generator: Adobe Illustrator 27.0.0, SVG Export Plug-In . SVG Version: 6.00 Build 0)  -->
<svg version="1.1" id="Layer_1" xmlns="http://www.w3.org/2000/svg" xmlns:xlink="http://www.w3.org/1999/xlink" x="0px" y="0px"
	 viewBox="0 0 312 121" style="enable-background:new 0 0 312 121;" xml:space="preserve">
<style type="text/css">
	.st0{fill-rule:evenodd;clip-rule:evenodd;fill:#FFFFFF;}
	.st1{fill:#FFFFFF;}
</style>
<g>
	<path class="st0" d="M1.8,120V94.2h8.1l0.3,2.3c1.2-0.8,2.5-1.5,3.9-2c1.5-0.5,3-0.8,4.7-0.8s3.1,0.3,4.1,0.8s1.7,1.3,2.3,2.2
		c1.2-0.9,2.5-1.6,4.1-2.1c1.5-0.6,3.3-0.8,5.3-0.8c3,0,5.2,0.8,6.6,2.3c1.4,1.6,2.1,3.9,2.1,7.1V120h-8.7v-15.8
		c0-1.4-0.3-2.4-0.9-3.1c-0.6-0.6-1.6-1-2.9-1c-0.8,0-1.6,0.2-2.4,0.5s-1.5,0.8-2,1.4c0.1,0.4,0.1,0.8,0.1,1.1c0,0.4,0,0.8,0,1.3
		V120h-8.2v-16c0-1.3-0.2-2.3-0.7-2.9c-0.5-0.7-1.3-1-2.6-1c-0.9,0-1.8,0.2-2.6,0.7s-1.5,1-2.2,1.6V120H1.8z"/>
	<path class="st0" d="M55.8,120.5c-1.6,0-3.1-0.3-4.5-0.9s-2.5-1.5-3.3-2.7s-1.3-2.7-1.3-4.5c0-2.7,0.9-4.7,2.7-6.2s4.5-2.3,8.1-2.3
		h7.2v-0.6c0-1.3-0.4-2.2-1.3-2.8c-0.9-0.6-2.5-0.8-4.9-0.8c-2.9,0-5.8,0.5-8.7,1.4v-5.7c1.3-0.5,2.8-0.9,4.7-1.3
		c1.8-0.3,3.8-0.5,5.8-0.5c4,0,7.1,0.8,9.4,2.4s3.4,4.2,3.4,7.8V120h-7.7l-0.4-2.2c-0.9,0.9-2.1,1.5-3.6,2
		C59.8,120.3,58,120.5,55.8,120.5L55.8,120.5z M58.6,115.1c1.4,0,2.6-0.2,3.6-0.7s1.8-1.1,2.4-1.8V109h-6.2c-2.6,0-3.9,1-3.9,3.1
		c0,0.9,0.3,1.7,1,2.2C56.2,114.8,57.2,115.1,58.6,115.1L58.6,115.1z"/>
	<path class="st0" d="M78.3,120V94.2h8.3l0.3,2.4c1.1-0.7,2.5-1.3,4.2-1.9s3.3-0.9,5-1.1v6.6c-0.9,0.1-2,0.3-3.1,0.5
		s-2.2,0.5-3.3,0.8c-1,0.3-1.9,0.7-2.6,1V120H78.3L78.3,120z"/>
	<path class="st0" d="M110,120.5c-3.2,0-5.5-0.8-7-2.4s-2.3-3.9-2.3-6.7v-10.5h-3.5v-6.6h3.5v-5.4l8.8-2.3v7.7h6.3l-0.4,6.6h-5.9
		v9.9c0,1.2,0.3,2.1,0.9,2.6s1.5,0.7,2.8,0.7c1.1,0,2.1-0.2,3.2-0.5v5.9C114.7,120.1,112.6,120.5,110,120.5L110,120.5z"/>
	<path class="st1" d="M125.7,113.5h-7v6.4h7V113.5z"/>
	<path class="st0" d="M143.8,120.5c-4.6,0-8.2-1.1-10.8-3.4c-2.6-2.2-3.9-5.6-3.9-10.1s1.4-7.9,4.1-10.1c2.7-2.2,6.3-3.3,10.8-3.3
		c1.9,0,3.5,0.1,4.9,0.4s2.7,0.7,4.1,1.3v6.2c-2-1-4.4-1.5-7.1-1.5c-2.5,0-4.5,0.5-5.8,1.5s-2,2.8-2,5.4c0,2.4,0.6,4.2,1.9,5.3
		c1.2,1.1,3.2,1.7,5.9,1.7s5.1-0.5,7.2-1.6v6.5c-1.3,0.6-2.7,1-4.2,1.2C147.2,120.4,145.6,120.5,143.8,120.5z"/>
	<path class="st0" d="M170.9,120.5c-5,0-8.6-1.2-11-3.5s-3.5-5.6-3.5-10s1.2-7.6,3.6-10s6-3.5,11-3.5s8.6,1.2,11,3.5s3.6,5.6,3.6,10
		s-1.2,7.7-3.5,10C179.6,119.3,175.9,120.5,170.9,120.5z M170.9,113.6c2,0,3.5-0.5,4.4-1.5s1.3-2.7,1.3-5.1s-0.4-4-1.3-5.1
		c-0.9-1-2.3-1.5-4.4-1.5s-3.4,0.5-4.3,1.5c-0.9,1-1.3,2.7-1.3,5.1s0.4,4,1.3,5.1C167.4,113.1,168.9,113.6,170.9,113.6z"/>
	<path class="st0" d="M189.9,120V94.2h8.1l0.3,2.3c1.2-0.8,2.5-1.5,3.9-2c1.5-0.5,3-0.8,4.7-0.8s3.1,0.3,4.1,0.8s1.7,1.3,2.3,2.2
		c1.2-0.9,2.5-1.6,4.1-2.1c1.5-0.6,3.3-0.8,5.3-0.8c3,0,5.2,0.8,6.6,2.3c1.4,1.6,2.1,3.9,2.1,7.1V120h-8.7v-15.8
		c0-1.4-0.3-2.4-0.9-3.1c-0.6-0.6-1.6-1-2.9-1c-0.8,0-1.6,0.2-2.4,0.5c-0.8,0.3-1.5,0.8-2,1.4c0.1,0.4,0.1,0.8,0.1,1.1
		c0,0.4,0,0.8,0,1.3V120h-8.2v-16c0-1.3-0.2-2.3-0.7-2.9c-0.5-0.7-1.3-1-2.6-1c-0.9,0-1.8,0.2-2.6,0.7s-1.5,1-2.2,1.6V120H189.9z"/>
	<path class="st0" d="M163.6,81.9V0.5L180,13.4v23.9l-9.4-8.1v52.5v0.2C170.6,81.9,163.6,81.9,163.6,81.9z"/>
	<path class="st0" d="M173.9,81.9V37.5l9.8,8.7v35.7H173.9z"/>
	<path class="st0" d="M0.4,80.8V28h17.1l0.6,4.9c2.3-1.4,5.2-2.7,8.6-3.8c3.4-1.2,6.8-1.9,10.3-2.2v13.5c-1.9,0.2-4.1,0.6-6.4,1.1
		s-4.6,1.1-6.7,1.7c-2.1,0.7-3.9,1.4-5.4,2.1v35.6L0.4,80.8L0.4,80.8z"/>
	<path class="st0" d="M69.7,81.9c-9.2,0-16.6-2.3-22.2-6.9s-8.4-11.5-8.4-20.7c0-8.4,2.3-15.1,6.9-20.1s11.5-7.5,20.7-7.5
		c8.4,0,14.9,2.2,19.5,6.5s6.9,10.1,6.9,17.4v9.5H55.8c0.8,3.5,2.7,5.9,5.7,7.3s7.1,2.1,12.3,2.1c2.9,0,5.8-0.3,8.9-0.8
		c3-0.5,5.5-1.2,7.5-2v11.7c-2.5,1.2-5.5,2.1-9,2.6C77.7,81.6,73.9,81.9,69.7,81.9L69.7,81.9z M55.8,49.8h21.8v-2.3
		c0-2.6-0.8-4.7-2.3-6.2S71.1,39,67.4,39c-4.3,0-7.3,0.9-9,2.6C56.6,43.4,55.8,46.1,55.8,49.8z"/>
	<path class="st0" d="M118.9,81.9c-3.3,0-6.4-0.6-9.3-1.8c-2.9-1.2-5.1-3-6.9-5.5c-1.7-2.5-2.6-5.6-2.6-9.3c0-5.4,1.8-9.7,5.5-12.8
		s9.2-4.6,16.6-4.6h14.7v-1.2c0-2.7-0.9-4.6-2.7-5.7c-1.8-1.2-5.1-1.7-10-1.7c-6,0-11.9,0.9-17.7,2.8V30.4c2.6-1,5.8-1.9,9.5-2.6
		c3.8-0.7,7.7-1,11.9-1c8.2,0,14.6,1.7,19.2,5s7,8.7,7,15.9v33h-15.7l-0.9-4.5c-1.9,1.8-4.4,3.2-7.4,4.1
		C127.1,81.4,123.3,81.9,118.9,81.9L118.9,81.9z M124.6,70.9c2.8,0,5.3-0.5,7.4-1.4c2.1-1,3.8-2.2,5-3.7v-7.5h-12.7
		c-5.3,0-7.9,2.1-7.9,6.4c0,1.9,0.7,3.5,2,4.6C119.6,70.3,121.7,70.9,124.6,70.9L124.6,70.9z"/>
	<path class="st0" d="M218.2,81.9c-6.5,0-11.3-1.7-14.4-5c-3.1-3.3-4.6-7.9-4.6-13.8V41.6H192V28h7.1V17l17.9-4.8V28h12.8L229,41.6
		h-12v20.3c0,2.5,0.6,4.3,1.9,5.3c1.3,1,3.2,1.5,5.7,1.5c2.2,0,4.3-0.4,6.6-1.1v12.1C227.7,81.2,223.4,81.9,218.2,81.9z"/>
	<path class="st0" d="M248.8,100.4c-2.7,0-5-0.1-6.9-0.4s-3.8-0.8-5.6-1.5V86c1.3,0.4,2.4,0.7,3.5,0.9c1.1,0.1,2.2,0.2,3.3,0.2
		c3,0,5.3-0.5,6.9-1.6c1.5-1.1,3.1-3,4.6-5.7L230.9,28h18.8l13.9,33.5L277.4,28h18.7l-20.2,48.5c-2,4.8-4.2,9-6.7,12.7
		c-2.4,3.6-5.3,6.4-8.6,8.4C257.4,99.4,253.4,100.4,248.8,100.4L248.8,100.4z"/>
	<path class="st1" d="M300.1,29.1v-6.2h-2.3V22h5.8v0.9h-2.3v6.2C301.3,29.1,300.1,29.1,300.1,29.1z"/>
	<path class="st1" d="M304.6,29.1V22h1.3l2.3,4.7l2.3-4.7h1.3v7.2h-1.2V24l-1.9,4H308l-2-4v5.2h-1.4V29.1z"/>
</g>
</svg>
