<svg xmlns="http://www.w3.org/2000/svg" width="18.813" height="18.817" viewBox="0 0 18.813 18.817">
  <path id="Path_11" data-name="Path 11" d="M8.732,10.086c-.5-.045-.991-.087-1.474-.128-1.4-.12-2.8-.235-4.208-.351-.764-.062-1.532-.128-2.3-.19A.751.751,0,0,1,.014,8.81.739.739,0,0,1,.489,8Q6.238,5.356,11.995,2.723q2.843-1.3,5.682-2.606a.872.872,0,0,1,.566-.1.722.722,0,0,1,.529.958c-.091.248-.211.483-.318.723q-3.791,8.27-7.582,16.535c-.033.07-.062.136-.1.2A.726.726,0,0,1,9.41,18.16c-.066-.71-.124-1.425-.182-2.139-.1-1.2-.2-2.4-.3-3.6-.05-.615-.1-1.231-.153-1.846-.012-.149-.029-.3-.045-.483Z" transform="translate(-0.004 -0.003)" fill="#e53726"/>
</svg>
