<svg width="300" height="54" viewBox="0 0 300 54" fill="none" xmlns="http://www.w3.org/2000/svg">
<path d="M69.1946 15.176C71.759 15.176 73.0384 16.4744 73.0384 19.0767V26.7724C73.0384 27.8679 73.6092 28.4143 74.7372 28.4143H75.6975V19.3607C75.6975 14.9867 73.5308 12.8173 69.1946 12.8524C66.8142 12.8524 65.0993 13.4935 64.0416 14.7784C63.1003 13.4557 61.3799 12.7983 58.894 12.7983C54.52 12.7983 52.3479 14.9867 52.3857 19.3607V28.4143H55.0448V19.0767C55.0069 16.4744 56.2701 15.176 58.8345 15.176C61.3988 15.176 62.6837 16.4203 62.6837 18.9089V28.417H65.3968V18.8548C65.3643 16.4014 66.6222 15.176 69.1919 15.176H69.1946ZM78.2429 13.0797L83.2796 27.5054C83.6935 28.7119 83.7151 29.7695 83.3364 30.6784C82.9604 31.5819 82.1489 32.0363 80.9019 32.0363H80.2797V34.4113H80.9019C81.992 34.4113 82.882 34.13 83.5636 33.562C84.3156 32.9966 84.9783 32.0553 85.5437 30.7325L91.7679 13.0797H90.6913C89.4849 13.0797 88.7302 13.645 88.4326 14.7784L84.981 24.8518L81.0182 13.0797H78.2483H78.2429Z" fill="#E53726"/>
<path d="M94.5947 28.4143H97.2538V19.5879C97.2916 17.0236 98.6306 15.7387 101.271 15.7387H102.458V13.0797H101.498C96.8967 13.0797 94.5947 15.3816 94.5947 19.9828V28.4116V28.4143ZM115.926 19.5311C115.999 19.5311 113.175 19.5311 107.438 19.5311C107.776 16.6638 109.202 15.2328 111.712 15.2328C114.222 15.2328 115.623 16.6611 115.926 19.5311ZM118.529 21.7384C118.829 15.8198 116.567 12.8552 111.739 12.8552C106.911 12.8552 104.814 15.4952 104.776 20.7781C104.855 26.061 107.119 28.7011 111.569 28.7011C115.264 28.7011 117.509 27.0402 118.299 23.7184H116.6C115.924 23.7184 115.412 24.0214 115.074 24.6273C114.509 25.6065 113.413 26.153 111.79 26.2693C109.115 26.2693 107.663 24.7572 107.435 21.7411C114.904 21.7411 118.604 21.7411 118.526 21.7411L118.529 21.7384ZM125.997 19.3634C122.903 19.9287 121.317 21.4598 121.247 23.9457C121.169 27.1132 123.038 28.7011 126.846 28.7011C129.411 28.7011 131.239 28.2277 132.332 27.2863C133.428 26.3396 133.974 24.9059 133.974 22.9854V16.534C133.936 14.0805 131.883 12.8552 127.809 12.8552C123.885 12.893 121.923 14.3077 121.923 17.0993H124.642C124.642 15.7414 125.675 15.0435 127.753 15.0083C130.128 14.9299 131.315 15.5358 131.315 16.818C131.315 17.9081 130.639 18.5708 129.284 18.798C128.077 19.0253 126.982 19.2146 126 19.3634H125.997ZM131.312 20.0964V22.9827C131.312 25.3198 129.976 26.4938 127.296 26.4938C125.186 26.4938 124.128 25.6742 124.128 24.0322C124.128 22.3903 125.205 21.4192 127.352 21.1162C128.599 20.9675 129.5 20.816 130.071 20.6672C130.636 20.513 131.05 20.3237 131.312 20.0992V20.0964ZM139.917 28.4143H137.258V8.72461H138.218C139.354 8.72461 139.917 9.27102 139.917 10.3665V28.4143ZM143.141 8.72461V25.7553C143.141 27.7164 144.478 28.6037 147.158 28.417C147.461 28.417 147.821 28.3792 148.235 28.3061V26.153H147.553C146.385 26.153 145.8 25.666 145.8 24.6841V14.9488H147.158C148.216 14.9488 148.741 14.4565 148.741 13.4773V13.0824H145.8V10.3693C145.8 9.23586 145.235 8.68944 144.102 8.72731H143.141V8.72461ZM151.346 13.0797L156.382 27.5055C156.799 28.7119 156.818 29.7695 156.439 30.6784C156.063 31.5819 155.252 32.0363 154.005 32.0363H153.383V34.4113H154.005C155.095 34.4113 155.985 34.13 156.666 33.562C157.418 32.9966 158.081 32.0553 158.647 30.7325L164.871 13.0797H163.794C162.588 13.0797 161.833 13.645 161.535 14.7784L158.084 24.8518L154.121 13.0797H151.351H151.346ZM174.208 26.4343C172.851 26.4343 171.866 26.0475 171.263 25.2765C170.659 24.5002 170.359 23.5859 170.359 22.5282V13.0797H167.7V22.2496C167.7 26.5479 169.867 28.7011 174.208 28.7011C178.55 28.7011 180.711 26.5479 180.711 22.2496V13.0797H179.697C178.561 13.0797 177.998 13.645 177.998 14.7784V22.5282C177.998 23.5859 177.695 24.4975 177.089 25.2765C176.486 26.0502 175.526 26.4343 174.206 26.4343H174.208ZM190.392 15.176C192.919 15.176 194.182 16.4744 194.182 19.0767V26.7724C194.182 27.8679 194.748 28.4143 195.881 28.4143H196.895V19.3607C196.933 14.9867 194.766 12.7983 190.392 12.7983C186.018 12.7983 183.846 14.9867 183.884 19.3607V28.4143H186.543V19.0767C186.543 16.4744 187.828 15.176 190.392 15.176ZM202.841 28.4143H200.182V8.72461H201.142C202.278 8.72461 202.841 9.27102 202.841 10.3665V28.4143ZM209.292 28.4143H206.633V13.0797H207.594C208.73 13.0797 209.292 13.6261 209.292 14.7216V28.4143ZM209.292 10.9887H206.633V8.72461H207.594C208.73 8.72461 209.292 9.27102 209.292 10.3665V10.9887ZM229.326 15.176C231.89 15.176 233.169 16.4744 233.169 19.0767V26.7724C233.169 27.8679 233.74 28.4143 234.868 28.4143H235.828V19.3607C235.828 14.9867 233.662 12.8173 229.326 12.8524C226.945 12.8524 225.23 13.4935 224.173 14.7784C223.231 13.4557 221.511 12.7983 219.025 12.7983C214.651 12.7983 212.479 14.9867 212.517 19.3607V28.4143H215.176V19.0767C215.138 16.4744 216.401 15.176 218.965 15.176C221.53 15.176 222.815 16.4203 222.815 18.9089V28.417H225.528V18.8548C225.493 16.4014 226.753 15.176 229.323 15.176H229.326ZM241.604 28.4143H238.945V13.0797H239.905C241.041 13.0797 241.604 13.6261 241.604 14.7216V28.4143ZM241.604 10.9887H238.945V8.72461H239.905C241.041 8.72461 241.604 9.27102 241.604 10.3665V10.9887ZM244.828 8.72461V25.7553C244.828 27.7164 246.164 28.6037 248.845 28.417C249.148 28.417 249.508 28.3792 249.922 28.3061V26.153H249.24C248.071 26.153 247.487 25.666 247.487 24.6841V14.9488H248.845C249.903 14.9488 250.427 14.4565 250.427 13.4773V13.0824H247.487V10.3693C247.487 9.23586 246.922 8.68944 245.788 8.72731H244.828V8.72461ZM263.952 19.5311C264.025 19.5311 261.201 19.5311 255.464 19.5311C255.802 16.6638 257.228 15.2328 259.738 15.2328C262.248 15.2328 263.649 16.6611 263.952 19.5311ZM266.555 21.7384C266.855 15.8198 264.593 12.8552 259.765 12.8552C254.937 12.8552 252.84 15.4952 252.802 20.7781C252.881 26.061 255.145 28.7011 259.595 28.7011C263.287 28.7011 265.535 27.0402 266.325 23.7184H264.626C263.95 23.7184 263.438 24.0214 263.1 24.6273C262.535 25.6065 261.439 26.153 259.816 26.2693C257.141 26.2693 255.689 24.7572 255.461 21.7411C262.93 21.7411 266.63 21.7411 266.552 21.7411L266.555 21.7384ZM276.23 26.3207C279.098 26.3207 280.534 24.4758 280.534 20.7781C280.534 17.0804 279.1 15.2356 276.23 15.2356C273.36 15.2356 271.929 17.0804 271.929 20.7781C271.929 24.4758 273.363 26.3207 276.23 26.3207ZM283.136 10.3665V21.7384C283.136 23.7374 282.644 25.3983 281.665 26.7156C280.686 28.0383 278.892 28.7011 276.29 28.7011C273.688 28.7011 271.921 28.06 270.888 26.7751C269.849 25.4956 269.327 23.5102 269.327 20.8376C269.289 15.5169 271.48 12.8552 275.895 12.8552C278.043 12.8552 279.568 13.6477 280.477 15.2356V8.72461H281.438C282.568 8.72461 283.136 9.27102 283.136 10.3665Z" fill="black"/>
<path fill-rule="evenodd" clip-rule="evenodd" d="M17.1018 24.6598H19.8636V21.898H17.1018V24.6598Z" fill="#E53726"/>
<path fill-rule="evenodd" clip-rule="evenodd" d="M19.8636 28.6172V25.8527H17.1018V28.6172H19.8636Z" fill="black"/>
<path fill-rule="evenodd" clip-rule="evenodd" d="M6.35205 30.3295C11.1156 40.8492 20.5127 53.9577 20.5127 53.9577V34.011C16.2984 34.011 12.084 31.9849 9.55478 27.9193L6.35205 30.3295Z" fill="#E53726"/>
<path fill-rule="evenodd" clip-rule="evenodd" d="M20.5128 17.6052V11.6L20.4668 11.5541L8.15092 24.7869C5.70289 16.5177 11.9109 8.22691 20.5128 8.22691V4.25867C11.1995 4.25867 3.6498 11.8083 3.6498 21.119C3.6498 23.218 4.52081 25.8554 5.28362 27.8003L0.847412 32.4692C10.8343 24.952 6.76326 28.0384 20.4668 17.5673C20.483 17.5781 20.4966 17.5889 20.5128 17.6025V17.6052Z" fill="black"/>
<path fill-rule="evenodd" clip-rule="evenodd" d="M21.1621 24.6598H23.9266V21.898H21.1621V24.6598Z" fill="black"/>
<path fill-rule="evenodd" clip-rule="evenodd" d="M23.9266 28.6172V25.8527H21.1621V28.6172H23.9266Z" fill="#E53726"/>
<path fill-rule="evenodd" clip-rule="evenodd" d="M20.5127 34.011V53.9577C20.5127 53.9577 30.0749 40.6139 34.7951 30.0536L31.6113 27.6813C29.1146 31.8984 24.8137 34.011 20.51 34.011H20.5127Z" fill="black"/>
<path fill-rule="evenodd" clip-rule="evenodd" d="M20.5127 8.22689C28.9875 8.22689 35.1765 16.2824 32.9611 24.4894L28.2896 19.5825V14.3186H25.5629V16.7152L20.5127 11.6V17.6051C34.4272 27.7516 30.321 24.7247 40.1781 32.0742L35.8501 27.5271C36.575 25.639 37.3757 23.1423 37.3757 21.1216C37.3757 11.8083 29.826 4.26135 20.5127 4.26135V8.22959V8.22689Z" fill="#E53726"/>
<path d="M52.3479 47.6578V39.0856H55.9429C57.6118 39.0856 58.4477 39.8701 58.4477 41.4417C58.4477 43.0133 57.1114 43.9736 54.4389 44.3955L54.3334 43.8194C56.611 43.5056 57.7471 42.7265 57.7471 41.4877C57.7471 40.2488 57.1114 39.6428 55.8428 39.6428H52.9782V47.6551H52.3506L52.3479 47.6578ZM61.0174 47.6578V41.3659H61.4665L61.5449 42.4101C62.1752 41.7149 62.8785 41.3659 63.6548 41.3659V41.8691C62.9028 41.8691 62.232 42.2342 61.645 42.9646V47.6578H61.0174ZM66.2516 44.4875C66.2516 46.2809 67.0198 47.179 68.559 47.179C70.0981 47.179 70.8664 46.2809 70.8664 44.4875C70.8664 42.6941 70.0981 41.8447 68.559 41.8447C67.0198 41.8447 66.2516 42.7266 66.2516 44.4875ZM65.6214 44.5119C65.6214 42.3749 66.6006 41.3064 68.559 41.3064C70.5174 41.3064 71.4939 42.3749 71.4939 44.5119C71.4939 46.6488 70.5174 47.7119 68.559 47.7119C66.6006 47.7119 65.6295 46.6461 65.6214 44.5119ZM74.8427 46.7354C75.4784 46.9491 76.0627 47.0573 76.601 47.0573C78.2267 47.0573 79.0409 46.1538 79.0409 44.3414C79.0409 42.732 78.2321 41.9259 76.6145 41.9259C76.0546 41.9259 75.4649 41.9746 74.8454 42.0719V46.7354H74.8427ZM74.2152 41.6229C74.9293 41.4498 75.7327 41.3659 76.6253 41.3659C78.6432 41.3659 79.6522 42.3614 79.6522 44.3577C79.6522 46.5595 78.6378 47.6605 76.6091 47.6605C76.106 47.6605 75.5163 47.5604 74.8454 47.3602V49.9381H74.2179V41.6256L74.2152 41.6229ZM84.9026 41.3659C86.6257 41.3659 87.4859 42.3181 87.4859 44.2251C87.4859 44.3631 87.4805 44.5037 87.4724 44.6498H82.6953C82.6953 46.2972 83.5664 47.1195 85.3084 47.1195C86.0252 47.1195 86.6582 47.0194 87.2154 46.8219V47.3602C86.6582 47.5604 86.0252 47.6605 85.3084 47.6605C83.1471 47.6605 82.0651 46.5893 82.0651 44.4415C82.0651 42.2937 83.0091 41.3659 84.8999 41.3659H84.9026ZM82.6981 44.0872H86.8827C86.8583 42.6238 86.201 41.8934 84.9053 41.8934C83.5068 41.8934 82.7711 42.6238 82.7008 44.0872H82.6981ZM90.2044 47.6578V41.3659H90.6535L90.7319 42.4101C91.3622 41.7149 92.0655 41.3659 92.8418 41.3659V41.8691C92.0898 41.8691 91.419 42.2342 90.832 42.9646V47.6578H90.2044ZM95.0843 40.3461H95.5279L95.6415 41.3659H97.5296V41.9042H95.6956V45.8779C95.6956 46.7056 95.9986 47.1168 96.6045 47.1168H97.5269V47.6578H96.618C95.5955 47.6578 95.0843 47.0924 95.0843 45.9617V40.3461ZM99.2175 41.3659H99.9425L102.282 47.0464L104.584 41.3659H105.279L102.547 47.8444C102.082 48.9859 101.387 49.7001 100.462 49.9841L100.275 49.4809C101.003 49.2159 101.557 48.6397 101.941 47.7552L99.2202 41.3659H99.2175ZM110.484 47.3575V46.6975C111.382 47.0167 112.372 47.179 113.457 47.179C115.25 47.179 116.145 46.5 116.145 45.1421C116.145 44.1413 115.564 43.6435 114.395 43.6435H112.632C111.038 43.6435 110.24 42.924 110.24 41.485C110.24 39.8484 111.409 39.0288 113.746 39.0288C114.706 39.0288 115.634 39.1505 116.532 39.3886V39.9891C115.634 39.7078 114.706 39.5698 113.746 39.5698C111.828 39.5698 110.871 40.2082 110.871 41.4877C110.871 42.5264 111.458 43.0457 112.632 43.0457H114.395C115.98 43.0457 116.776 43.7463 116.776 45.1448C116.776 46.8625 115.669 47.72 113.457 47.72C112.372 47.72 111.382 47.601 110.484 47.3602V47.3575ZM122.029 41.3659C123.752 41.3659 124.612 42.3181 124.612 44.2251C124.612 44.3631 124.607 44.5037 124.599 44.6498H119.822C119.822 46.2972 120.693 47.1195 122.435 47.1195C123.151 47.1195 123.784 47.0194 124.342 46.8219V47.3602C123.784 47.5604 123.151 47.6605 122.435 47.6605C120.273 47.6605 119.191 46.5893 119.191 44.4415C119.191 42.2937 120.135 41.3659 122.026 41.3659H122.029ZM119.824 44.0872H124.009C123.985 42.6238 123.327 41.8934 122.032 41.8934C120.633 41.8934 119.897 42.6238 119.827 44.0872H119.824ZM126.971 45.8779C126.971 44.6282 127.801 44.0033 129.465 44.0033C130.052 44.0033 130.679 44.0412 131.348 44.1223V43.3514C131.348 42.3884 130.742 41.9042 129.53 41.9042C128.843 41.9042 128.158 42.0043 127.479 42.2045V41.6635C128.158 41.466 128.843 41.3632 129.53 41.3632C131.161 41.3632 131.975 42.0151 131.975 43.3162V47.6551H131.594L131.448 47.0302C130.663 47.4468 129.898 47.6551 129.159 47.6551C127.701 47.6551 126.971 47.0627 126.971 45.8752V45.8779ZM129.465 44.5416C128.221 44.5416 127.601 44.9798 127.601 45.8589C127.601 46.7381 128.118 47.1168 129.159 47.1168C129.927 47.1168 130.658 46.9139 131.348 46.5054V44.6606C130.679 44.5795 130.052 44.5416 129.465 44.5416ZM134.994 47.6578V41.3659H135.443L135.521 42.4101C136.152 41.7149 136.855 41.3659 137.631 41.3659V41.8691C136.879 41.8691 136.208 42.2342 135.621 42.9646V47.6578H134.994ZM144.453 47.4765C143.934 47.5983 143.377 47.6578 142.776 47.6578C140.658 47.6578 139.598 46.5704 139.598 44.3901C139.598 42.3722 140.658 41.3632 142.776 41.3632C143.377 41.3632 143.934 41.4227 144.453 41.5445V42.0828C143.896 41.9637 143.355 41.9015 142.836 41.9015C141.137 41.9015 140.288 42.732 140.288 44.3901C140.288 46.2079 141.137 47.1168 142.836 47.1168C143.355 47.1168 143.896 47.0573 144.453 46.9355V47.4765ZM147.023 47.6578V39.0856H147.651V42.0476C148.386 41.5904 149.141 41.3632 149.912 41.3632C151.443 41.3632 152.206 42.145 152.206 43.7058V47.6551H151.576V43.4461C151.576 42.4317 151.01 41.9232 149.88 41.9232C149.125 41.9232 148.381 42.1883 147.651 42.7211V47.6524H147.023V47.6578ZM155.736 46.9085V47.6578H154.927V46.9085H155.736ZM161.373 47.6578H160.702L164.579 39.0856H165.328L169.226 47.6578H168.474L167.202 44.7824H163.602L163.848 44.2414H166.97L164.914 39.5779L161.373 47.6578ZM171.493 47.6578V41.3659H171.942L172.02 42.1693C172.823 41.6364 173.611 41.3659 174.381 41.3659C175.912 41.3659 176.675 42.026 176.675 43.3514V47.6605H176.045V43.3325C176.045 42.3965 175.48 41.9286 174.349 41.9286C173.594 41.9286 172.85 42.1937 172.12 42.7265V47.6578H171.493ZM178.948 41.3659H179.672L182.012 47.0464L184.314 41.3659H185.009L182.277 47.8444C181.812 48.9859 181.117 49.7001 180.192 49.9841L180.005 49.4809C180.733 49.2159 181.287 48.6397 181.671 47.7552L178.95 41.3659H178.948ZM186.676 41.3659H187.317L188.672 46.8977L190.668 41.3659H191.131L193.179 46.7759L194.563 41.3659H195.18L193.538 47.6578H192.886L190.901 42.2938L188.948 47.6578H188.272L186.678 41.3659H186.676ZM197.599 47.6578V39.0856H198.226V42.0476C198.962 41.5904 199.717 41.3632 200.487 41.3632C202.018 41.3632 202.781 42.145 202.781 43.7058V47.6551H202.151V43.4461C202.151 42.4317 201.586 41.9232 200.455 41.9232C199.7 41.9232 198.956 42.1883 198.226 42.7211V47.6524H197.599V47.6578ZM208.335 41.3659C210.058 41.3659 210.918 42.3181 210.918 44.2251C210.918 44.3631 210.913 44.5037 210.904 44.6498H206.127C206.127 46.2972 206.998 47.1195 208.74 47.1195C209.457 47.1195 210.09 47.0194 210.647 46.8219V47.3602C210.09 47.5604 209.457 47.6605 208.74 47.6605C206.579 47.6605 205.497 46.5893 205.497 44.4415C205.497 42.2937 206.441 41.3659 208.332 41.3659H208.335ZM206.13 44.0872H210.315C210.29 42.6238 209.633 41.8934 208.337 41.8934C206.939 41.8934 206.203 42.6238 206.133 44.0872H206.13ZM213.636 47.6578V41.3659H214.086L214.164 42.4101C214.794 41.7149 215.498 41.3659 216.274 41.3659V41.8691C215.522 41.8691 214.851 42.2342 214.264 42.9646V47.6578H213.636ZM221.075 41.3659C222.798 41.3659 223.659 42.3181 223.659 44.2251C223.659 44.3631 223.653 44.5037 223.645 44.6498H218.868C218.868 46.2972 219.739 47.1195 221.481 47.1195C222.198 47.1195 222.831 47.0194 223.388 46.8219V47.3602C222.831 47.5604 222.198 47.6605 221.481 47.6605C219.32 47.6605 218.238 46.5893 218.238 44.4415C218.238 42.2937 219.182 41.3659 221.073 41.3659H221.075ZM218.871 44.0872H223.055C223.031 42.6238 222.374 41.8934 221.078 41.8934C219.679 41.8934 218.944 42.6238 218.873 44.0872H218.871ZM227.097 46.5514L226.199 49.1563H225.568L226.469 46.5514H227.097ZM232.228 47.6605H231.557L235.433 39.0883H236.183L240.081 47.6605H239.329L238.057 44.7851H234.457L234.703 44.2441H237.825L235.769 39.5806L232.228 47.6605ZM242.347 47.6605V41.3686H242.796L242.875 42.172C243.678 41.6391 244.465 41.3686 245.236 41.3686C246.767 41.3686 247.53 42.0287 247.53 43.3541V47.6632H246.9V43.3352C246.9 42.3992 246.335 41.9313 245.204 41.9313C244.449 41.9313 243.705 42.1964 242.975 42.7293V47.6605H242.347ZM249.802 41.3686H250.527L252.867 47.0491L255.169 41.3686H255.864L253.132 47.8471C252.667 48.9886 251.972 49.7028 251.047 49.9868L250.86 49.4836C251.588 49.2186 252.142 48.6424 252.526 47.7579L249.805 41.3686H249.802ZM258.104 40.3489H258.548L258.661 41.3686H260.549V41.9069H258.718V45.8806C258.718 46.7083 259.021 47.1195 259.627 47.1195H260.549V47.6605H259.64C258.618 47.6605 258.107 47.0951 258.107 45.9644V40.3489H258.104ZM263.795 39.0883V39.8079H263.046V39.0883H263.795ZM263.736 41.3659V47.6578H263.106V41.3659H263.736ZM266.874 47.6578V41.3659H267.323L267.388 42.1558C268.031 41.631 268.727 41.3659 269.479 41.3659C270.471 41.3659 271.11 41.6527 271.405 42.2288C272.127 41.6527 272.863 41.3659 273.604 41.3659C275.01 41.3659 275.714 42.0638 275.714 43.4569V47.6578H275.083V43.4569C275.083 42.4371 274.588 41.9286 273.598 41.9286C272.806 41.9286 272.154 42.2018 271.637 42.7455V47.6605H271.007V43.3568C271.007 42.4074 270.496 41.9313 269.473 41.9313C268.729 41.9313 268.075 42.2045 267.501 42.7482V47.6632H266.874V47.6578ZM281.267 41.3659C282.99 41.3659 283.85 42.3181 283.85 44.2251C283.85 44.3631 283.845 44.5037 283.837 44.6498H279.06C279.06 46.2972 279.931 47.1195 281.673 47.1195C282.39 47.1195 283.023 47.0194 283.58 46.8219V47.3602C283.023 47.5604 282.39 47.6605 281.673 47.6605C279.511 47.6605 278.429 46.5893 278.429 44.4415C278.429 42.2937 279.373 41.3659 281.264 41.3659H281.267ZM279.062 44.0872H283.247C283.223 42.6238 282.565 41.8934 281.27 41.8934C279.871 41.8934 279.135 42.6238 279.065 44.0872H279.062Z" fill="#666766"/>
<path d="M292.291 8.90854V3.23126H294.809C295.313 3.23126 295.7 3.28126 295.963 3.38581C296.227 3.48581 296.436 3.66763 296.595 3.92672C296.754 4.18581 296.832 4.47217 296.832 4.78126C296.832 5.18581 296.7 5.52217 296.441 5.79944C296.182 6.07672 295.777 6.24944 295.232 6.32672C295.432 6.42217 295.582 6.51763 295.686 6.60854C295.904 6.80854 296.113 7.06308 296.309 7.36308L297.295 8.90854H296.35L295.6 7.72672C295.382 7.38581 295.2 7.12672 295.059 6.9449C294.918 6.76308 294.791 6.63581 294.677 6.56763C294.563 6.49944 294.45 6.4449 294.336 6.41763C294.25 6.39944 294.113 6.39035 293.918 6.39035H293.045V8.91308H292.295L292.291 8.90854ZM293.041 5.73581H294.654C295 5.73581 295.268 5.69944 295.459 5.63126C295.65 5.56308 295.8 5.4449 295.9 5.29035C296 5.13581 296.05 4.96308 296.05 4.78126C296.05 4.51308 295.954 4.29035 295.759 4.11763C295.564 3.9449 295.254 3.85853 294.836 3.85853H293.041V5.73581Z" fill="#231F20"/>
<path d="M294.791 11.0676C297.552 11.0676 299.791 8.82905 299.791 6.06763C299.791 3.3062 297.552 1.06763 294.791 1.06763C292.029 1.06763 289.791 3.3062 289.791 6.06763C289.791 8.82905 292.029 11.0676 294.791 11.0676Z" stroke="#231F20" stroke-width="0.3" stroke-miterlimit="10"/>
</svg>
