<svg xmlns="http://www.w3.org/2000/svg" width="22.876" height="22.156" viewBox="0 0 22.876 22.156">
  <path id="Path_20" data-name="Path 20" d="M22.88,9.83v.491a2.484,2.484,0,0,1-1.056,1.195.634.634,0,0,1-.9-.1c-.09-.078-.184-.151-.307-.25V20.79c0,.1,0,.192,0,.29a1.092,1.092,0,0,1-1.076,1.068c-1.436.012-2.872.008-4.308,0a.984.984,0,0,1-.961-.757,2.26,2.26,0,0,1-.053-.552V14.031H9.129v.278c0,2.181-.012,4.361.008,6.542a1.215,1.215,0,0,1-1.293,1.309c-1.236-.029-2.471-.008-3.707-.008a1.717,1.717,0,0,1-.356-.025,1.132,1.132,0,0,1-.9-1.211v-9.9c-.27.237-.5.442-.724.638A1.066,1.066,0,0,1,.91,11.8a1.912,1.912,0,0,1-.765-.765A1.079,1.079,0,0,1,.477,9.621L10.561.383a1.274,1.274,0,0,1,1.792-.02c.5.43.986.863,1.477,1.293q4.2,3.676,8.4,7.348a1.956,1.956,0,0,1,.646.831Z" transform="translate(-0.004 -0.005)" fill="#e53726"/>
</svg>
