<svg width="96" height="96" viewBox="0 0 96 96" fill="none" xmlns="http://www.w3.org/2000/svg">
<path d="M0 5C0 2.23857 2.23858 0 5 0H91C93.7614 0 96 2.23858 96 5V91C96 93.7614 93.7614 96 91 96H5C2.23857 96 0 93.7614 0 91V5Z" fill="white"/>
<path fill-rule="evenodd" clip-rule="evenodd" d="M43.321 42.0034H47.1144V38.2101H43.321V42.0034Z" fill="#E53726"/>
<path fill-rule="evenodd" clip-rule="evenodd" d="M47.1144 47.4371V43.6438H43.321V47.4371H47.1144Z" fill="black"/>
<path fill-rule="evenodd" clip-rule="evenodd" d="M28.5573 49.7806C35.0894 64.2217 47.9927 82.2218 47.9927 82.2218V54.8482C42.2075 54.8482 36.4222 52.0654 32.9511 46.4852L28.5573 49.7952V49.7806Z" fill="#E53726"/>
<path fill-rule="evenodd" clip-rule="evenodd" d="M48.0075 32.3223V24.0766L47.9489 24.018L31.0473 42.1792C27.6933 30.8284 36.2027 19.4484 48.0222 19.4484V14C35.2214 14 24.8519 24.3695 24.8519 37.1409C24.8519 40.0262 26.0529 43.6438 27.0928 46.3094L21 52.7244C34.7088 42.3989 29.1286 46.6463 47.9343 32.2638C47.9343 32.2638 47.9782 32.293 47.9929 32.3077L48.0075 32.3223Z" fill="black"/>
<path fill-rule="evenodd" clip-rule="evenodd" d="M48.8864 42.0034H52.6797V38.2101H48.8864V42.0034Z" fill="black"/>
<path fill-rule="evenodd" clip-rule="evenodd" d="M52.6797 47.4371V43.6438H48.8864V47.4371H52.6797Z" fill="#E53726"/>
<path fill-rule="evenodd" clip-rule="evenodd" d="M48.0071 54.8481V82.2364C48.0071 82.2364 61.13 63.9141 67.6183 49.4144L63.2537 46.163C59.8265 51.9482 53.9241 54.8481 48.0217 54.8481H48.0071Z" fill="black"/>
<path fill-rule="evenodd" clip-rule="evenodd" d="M48.0071 19.4484C59.6361 19.4484 68.1455 30.5062 65.0991 41.7691L58.6841 35.0319V27.8113H54.9347V31.1067L48.0071 24.0912V32.337C67.1057 46.2655 61.4669 42.106 74.9999 52.1972L69.0536 45.9579C70.0495 43.3655 71.148 39.9383 71.148 37.1702C71.148 24.3695 60.7785 14 48.0071 14V19.4484Z" fill="#E53726"/>
</svg>
