<svg xmlns="http://www.w3.org/2000/svg" width="23.078" height="23.096" viewBox="0 0 23.078 23.096">
  <path id="Path_12" data-name="Path 12" d="M22.139,23.1a4.679,4.679,0,0,1-.5-.373q-2.777-2.718-5.539-5.45c-.084-.084-.153-.185-.222-.269-.442.291-.832.573-1.244.812A9.624,9.624,0,0,1,11,19.051a9.858,9.858,0,0,1-2.335.035,9.578,9.578,0,0,1-3.643-1.138,9.782,9.782,0,0,1-2.535-1.994,9.251,9.251,0,0,1-2.34-4.779A9.161,9.161,0,0,1,1.56,4.408,9.448,9.448,0,0,1,7.568.259a9.443,9.443,0,0,1,6.679.866,9.421,9.421,0,0,1,4.994,6.536,8.979,8.979,0,0,1,.072,3.377,9.417,9.417,0,0,1-2.189,4.707c-.054.062-.1.128-.156.193a.307.307,0,0,0-.017.059c.044.047.094.1.146.153q2.784,2.744,5.569,5.485a5.739,5.739,0,0,1,.42.518v.4a.955.955,0,0,1-.541.541h-.4ZM17.918,9.589a8.006,8.006,0,0,0-1.78-5.033A8.216,8.216,0,0,0,10.294,1.53a8.3,8.3,0,0,0-3.214.41A8.106,8.106,0,0,0,4.6,3.278a7.975,7.975,0,0,0-2.965,7.563,7.835,7.835,0,0,0,2.31,4.453A8.076,8.076,0,0,0,8.326,17.52a8.232,8.232,0,0,0,3.021-.035A8.031,8.031,0,0,0,15.174,15.6a7.935,7.935,0,0,0,2.747-6.011Z" transform="translate(-0.007 -0.003)" fill="#fff"/>
</svg>
