<svg width="394" height="217" viewBox="0 0 394 217" fill="none" xmlns="http://www.w3.org/2000/svg">
<path d="M381.011 65.1804H12.9889C5.81807 65.1804 0 70.9806 0 78.1439V204.037C0 211.193 5.81807 217 12.9889 217H381.011C388.182 217 394 211.193 394 204.037V78.1439C394 70.9871 388.182 65.1804 381.011 65.1804ZM46.3541 84.3242C42.9066 84.3242 40.1092 81.5322 40.1092 78.0915C40.1092 74.6507 42.9066 71.8588 46.3541 71.8588C49.8016 71.8588 52.599 74.6507 52.599 78.0915C52.599 81.5322 49.8016 84.3242 46.3541 84.3242ZM342.727 84.3242C339.28 84.3242 336.483 81.5322 336.483 78.0915C336.483 74.6507 339.28 71.8588 342.727 71.8588C346.175 71.8588 348.972 74.6507 348.972 78.0915C348.972 81.5322 346.175 84.3242 342.727 84.3242Z" fill="white"/>
<path opacity="0.05" d="M197.217 66.1243H12.9889C5.81807 66.1243 0 71.931 0 79.0878V204.98C0 208.664 4.64263 216.994 12.9889 216.994H197.217V66.1243ZM46.3541 84.3177C42.9066 84.3177 40.1092 81.5258 40.1092 78.085C40.1092 74.6443 42.9066 71.8523 46.3541 71.8523C49.8016 71.8523 52.599 74.6443 52.599 78.085C52.599 81.5258 49.8016 84.3177 46.3541 84.3177Z" fill="#232222"/>
<path d="M43 0V73.6503C43 76.0523 44.5644 78 46.5 78C48.4355 78 50 76.0523 50 73.6503V0H43.0073H43Z" fill="#E53726"/>
<path d="M340 0V73.6493C340 76.0518 341.341 78 343 78C344.659 78 346 76.0518 346 73.6493V0H340Z" fill="#E53726"/>
<path d="M102.232 131.815C105.243 131.815 106.745 133.34 106.745 136.394V145.428C106.745 146.714 107.415 147.356 108.739 147.356H109.866V136.728C109.866 131.593 107.323 129.046 102.232 129.088C99.4381 129.088 97.4249 129.84 96.1833 131.349C95.0783 129.796 93.0587 129.024 90.1406 129.024C85.006 129.024 82.4561 131.593 82.5006 136.728V147.356H85.622V136.394C85.5775 133.34 87.0604 131.815 90.0707 131.815C93.081 131.815 94.5893 133.276 94.5893 136.197V147.359H97.7742V136.134C97.7361 133.254 99.2126 131.815 102.229 131.815H102.232ZM112.854 129.354L118.767 146.289C119.253 147.705 119.278 148.947 118.833 150.014C118.392 151.074 117.439 151.608 115.976 151.608H115.245V154.396H115.976C117.255 154.396 118.3 154.065 119.1 153.398C119.983 152.735 120.761 151.63 121.425 150.077L128.731 129.354H127.467C126.051 129.354 125.165 130.018 124.816 131.349L120.764 143.174L116.112 129.354H112.86H112.854Z" fill="#E53726"/>
<path d="M132.049 147.356H135.171V136.994C135.215 133.984 136.787 132.476 139.886 132.476H141.28V129.355H140.153C134.752 129.355 132.049 132.057 132.049 137.458V147.353V147.356ZM157.09 136.928C157.176 136.928 153.861 136.928 147.126 136.928C147.523 133.562 149.196 131.882 152.143 131.882C155.09 131.882 156.735 133.559 157.09 136.928ZM160.145 139.519C160.498 132.571 157.843 129.091 152.175 129.091C146.507 129.091 144.046 132.19 144.001 138.392C144.094 144.593 146.751 147.692 151.975 147.692C156.312 147.692 158.948 145.743 159.875 141.843H157.881C157.087 141.843 156.487 142.199 156.09 142.91C155.427 144.06 154.141 144.701 152.235 144.838C149.095 144.838 147.39 143.063 147.123 139.522C155.89 139.522 160.234 139.522 160.142 139.522L160.145 139.519ZM168.912 136.731C165.28 137.395 163.419 139.192 163.336 142.11C163.244 145.828 165.439 147.692 169.91 147.692C172.92 147.692 175.066 147.137 176.349 146.032C177.635 144.92 178.277 143.237 178.277 140.983V133.409C178.232 130.529 175.822 129.091 171.04 129.091C166.432 129.135 164.13 130.796 164.13 134.073H167.322C167.322 132.479 168.535 131.66 170.973 131.619C173.761 131.526 175.155 132.238 175.155 133.743C175.155 135.023 174.361 135.801 172.771 136.067C171.354 136.334 170.068 136.556 168.916 136.731H168.912ZM175.152 137.591V140.98C175.152 143.723 173.583 145.101 170.437 145.101C167.96 145.101 166.718 144.139 166.718 142.212C166.718 140.284 167.982 139.144 170.503 138.789C171.967 138.614 173.025 138.436 173.695 138.261C174.358 138.08 174.844 137.858 175.152 137.595V137.591ZM185.253 147.356H182.132V124.242H183.259C184.593 124.242 185.253 124.884 185.253 126.17V147.356ZM189.038 124.242V144.234C189.038 146.537 190.607 147.578 193.754 147.359C194.109 147.359 194.531 147.315 195.017 147.229V144.701H194.217C192.845 144.701 192.159 144.13 192.159 142.977V131.549H193.754C194.995 131.549 195.611 130.971 195.611 129.821V129.358H192.159V126.173C192.159 124.842 191.496 124.201 190.165 124.245H189.038V124.242ZM198.669 129.355L204.582 146.289C205.071 147.705 205.093 148.947 204.648 150.014C204.207 151.074 203.254 151.608 201.79 151.608H201.06V154.396H201.79C203.07 154.396 204.115 154.065 204.915 153.399C205.798 152.735 206.576 151.63 207.239 150.077L214.546 129.355H213.282C211.866 129.355 210.98 130.018 210.631 131.349L206.579 143.174L201.927 129.355H198.675H198.669ZM225.507 145.031C223.913 145.031 222.758 144.577 222.049 143.672C221.341 142.761 220.989 141.688 220.989 140.446V129.355H217.867V140.119C217.867 145.165 220.411 147.692 225.507 147.692C230.604 147.692 233.141 145.165 233.141 140.119V129.355H231.95C230.617 129.355 229.956 130.018 229.956 131.349V140.446C229.956 141.688 229.6 142.758 228.889 143.672C228.181 144.58 227.054 145.031 225.504 145.031H225.507ZM244.506 131.815C247.472 131.815 248.954 133.34 248.954 136.394V145.428C248.954 146.714 249.618 147.356 250.949 147.356H252.139V136.728C252.184 131.593 249.64 129.024 244.506 129.024C239.371 129.024 236.821 131.593 236.866 136.728V147.356H239.987V136.394C239.987 133.34 241.496 131.815 244.506 131.815ZM259.119 147.356H255.998V124.242H257.125C258.458 124.242 259.119 124.884 259.119 126.17V147.356ZM266.692 147.356H263.571V129.355H264.698C266.032 129.355 266.692 129.996 266.692 131.282V147.356ZM266.692 126.9H263.571V124.242H264.698C266.032 124.242 266.692 124.884 266.692 126.17V126.9ZM290.209 131.815C293.219 131.815 294.721 133.34 294.721 136.394V145.428C294.721 146.714 295.391 147.356 296.716 147.356H297.843V136.728C297.843 131.593 295.299 129.046 290.209 129.088C287.415 129.088 285.402 129.84 284.16 131.349C283.055 129.796 281.035 129.024 278.117 129.024C272.983 129.024 270.433 131.593 270.477 136.728V147.356H273.599V136.394C273.554 133.34 275.037 131.815 278.047 131.815C281.058 131.815 282.566 133.276 282.566 136.197V147.359H285.751V136.134C285.71 133.254 287.189 131.815 290.206 131.815H290.209ZM304.622 147.356H301.501V129.355H302.628C303.962 129.355 304.622 129.996 304.622 131.282V147.356ZM304.622 126.9H301.501V124.242H302.628C303.962 124.242 304.622 124.884 304.622 126.17V126.9ZM308.407 124.242V144.234C308.407 146.537 309.976 147.578 313.123 147.359C313.478 147.359 313.901 147.315 314.387 147.229V144.701H313.586C312.215 144.701 311.529 144.13 311.529 142.977V131.549H313.123C314.364 131.549 314.98 130.971 314.98 129.821V129.358H311.529V126.173C311.529 124.842 310.865 124.201 309.535 124.245H308.407V124.242ZM330.857 136.928C330.943 136.928 327.628 136.928 320.893 136.928C321.29 133.562 322.963 131.882 325.91 131.882C328.857 131.882 330.502 133.559 330.857 136.928ZM333.912 139.519C334.265 132.571 331.61 129.091 325.942 129.091C320.274 129.091 317.813 132.19 317.768 138.392C317.86 144.593 320.518 147.692 325.742 147.692C330.076 147.692 332.715 145.743 333.642 141.843H331.648C330.854 141.843 330.254 142.199 329.857 142.91C329.193 144.06 327.907 144.701 326.002 144.838C322.862 144.838 321.157 143.063 320.89 139.522C329.657 139.522 334.001 139.522 333.909 139.522L333.912 139.519ZM345.27 144.898C348.636 144.898 350.322 142.732 350.322 138.392C350.322 134.051 348.64 131.885 345.27 131.885C341.901 131.885 340.222 134.051 340.222 138.392C340.222 142.732 341.905 144.898 345.27 144.898ZM353.377 126.17V139.519C353.377 141.866 352.799 143.815 351.65 145.362C350.5 146.914 348.395 147.692 345.34 147.692C342.286 147.692 340.212 146.94 338.999 145.432C337.78 143.93 337.167 141.599 337.167 138.462C337.122 132.216 339.694 129.091 344.877 129.091C347.398 129.091 349.189 130.021 350.256 131.885V124.242H351.383C352.71 124.242 353.377 124.884 353.377 126.17Z" fill="black"/>
<path fill-rule="evenodd" clip-rule="evenodd" d="M41.0808 142.948H44.3229V139.706H41.0808V142.948Z" fill="#E53726"/>
<path fill-rule="evenodd" clip-rule="evenodd" d="M44.3229 147.594V144.349H41.0808V147.594H44.3229Z" fill="black"/>
<path fill-rule="evenodd" clip-rule="evenodd" d="M28.4617 149.604C34.0535 161.953 45.0848 177.341 45.0848 177.341V153.925C40.1376 153.925 35.1903 151.547 32.2213 146.774L28.4617 149.604Z" fill="#E53726"/>
<path fill-rule="evenodd" clip-rule="evenodd" d="M45.0851 134.667V127.617L45.0311 127.563L30.5736 143.097C27.6998 133.39 34.9873 123.658 45.0851 123.658V118.999C34.1522 118.999 25.2897 127.862 25.2897 138.792C25.2897 141.256 26.3122 144.352 27.2076 146.635L22 152.115C33.7235 143.291 28.9446 146.914 45.0311 134.622C45.0502 134.635 45.066 134.648 45.0851 134.663V134.667Z" fill="black"/>
<path fill-rule="evenodd" clip-rule="evenodd" d="M45.8472 142.948H49.0924V139.706H45.8472V142.948Z" fill="black"/>
<path fill-rule="evenodd" clip-rule="evenodd" d="M49.0924 147.594V144.349H45.8472V147.594H49.0924Z" fill="#E53726"/>
<path fill-rule="evenodd" clip-rule="evenodd" d="M45.085 153.926V177.341C45.085 177.341 56.31 161.677 61.851 149.28L58.1136 146.495C55.1827 151.446 50.1338 153.926 45.0818 153.926H45.085Z" fill="black"/>
<path fill-rule="evenodd" clip-rule="evenodd" d="M45.085 123.658C55.0335 123.658 62.2987 133.114 59.6981 142.748L54.2142 136.988V130.809H51.0134V133.622L45.085 127.617V134.667C61.4192 146.578 56.5989 143.024 68.17 151.652L63.0894 146.314C63.9404 144.098 64.8803 141.167 64.8803 138.795C64.8803 127.862 56.0178 119.003 45.085 119.003V123.661V123.658Z" fill="#E53726"/>
<path d="M82.4563 169.945V159.882H86.6764C88.6356 159.882 89.6168 160.803 89.6168 162.648C89.6168 164.493 88.0482 165.62 84.9109 166.116L84.787 165.439C87.4607 165.071 88.7944 164.157 88.7944 162.702C88.7944 161.248 88.0482 160.537 86.5589 160.537H83.1962V169.942H82.4595L82.4563 169.945ZM92.6334 169.945V162.559H93.1605L93.2526 163.785C93.9925 162.969 94.8181 162.559 95.7294 162.559V163.15C94.8467 163.15 94.0592 163.579 93.3701 164.436V169.945H92.6334ZM98.7778 166.224C98.7778 168.329 99.6796 169.383 101.486 169.383C103.293 169.383 104.195 168.329 104.195 166.224C104.195 164.118 103.293 163.121 101.486 163.121C99.6796 163.121 98.7778 164.157 98.7778 166.224ZM98.0379 166.252C98.0379 163.744 99.1874 162.489 101.486 162.489C103.785 162.489 104.932 163.744 104.932 166.252C104.932 168.761 103.785 170.009 101.486 170.009C99.1874 170.009 98.0475 168.758 98.0379 166.252ZM108.863 168.862C109.609 169.113 110.295 169.24 110.927 169.24C112.835 169.24 113.791 168.18 113.791 166.052C113.791 164.163 112.842 163.217 110.943 163.217C110.285 163.217 109.593 163.274 108.866 163.388V168.862H108.863ZM108.126 162.861C108.964 162.658 109.908 162.559 110.955 162.559C113.324 162.559 114.509 163.728 114.509 166.071C114.509 168.656 113.318 169.948 110.936 169.948C110.346 169.948 109.654 169.831 108.866 169.596V172.622H108.129V162.864L108.126 162.861ZM120.672 162.559C122.695 162.559 123.705 163.677 123.705 165.916C123.705 166.078 123.698 166.243 123.689 166.414H118.081C118.081 168.348 119.103 169.313 121.148 169.313C121.99 169.313 122.733 169.196 123.387 168.964V169.596C122.733 169.831 121.99 169.948 121.148 169.948C118.611 169.948 117.341 168.691 117.341 166.17C117.341 163.648 118.449 162.559 120.669 162.559H120.672ZM118.084 165.754H122.997C122.968 164.036 122.196 163.179 120.675 163.179C119.034 163.179 118.17 164.036 118.087 165.754H118.084ZM126.896 169.945V162.559H127.423L127.515 163.785C128.255 162.969 129.081 162.559 129.992 162.559V163.15C129.109 163.15 128.322 163.579 127.633 164.436V169.945H126.896ZM132.624 161.362H133.145L133.278 162.559H135.495V163.191H133.342V167.856C133.342 168.828 133.698 169.31 134.409 169.31H135.492V169.945H134.425C133.224 169.945 132.624 169.282 132.624 167.954V161.362ZM137.476 162.559H138.327L141.074 169.228L143.776 162.559H144.592L141.385 170.164C140.839 171.504 140.023 172.343 138.937 172.676L138.718 172.085C139.572 171.774 140.223 171.098 140.674 170.06L137.479 162.559H137.476ZM150.702 169.593V168.818C151.756 169.193 152.918 169.383 154.192 169.383C156.297 169.383 157.348 168.586 157.348 166.992C157.348 165.817 156.665 165.233 155.293 165.233H153.223C151.353 165.233 150.416 164.388 150.416 162.699C150.416 160.778 151.788 159.816 154.531 159.816C155.659 159.816 156.748 159.959 157.802 160.238V160.943C156.748 160.613 155.659 160.451 154.531 160.451C152.28 160.451 151.156 161.2 151.156 162.702C151.156 163.922 151.845 164.531 153.223 164.531H155.293C157.154 164.531 158.088 165.354 158.088 166.995C158.088 169.012 156.789 170.018 154.192 170.018C152.918 170.018 151.756 169.879 150.702 169.596V169.593ZM164.254 162.559C166.277 162.559 167.287 163.677 167.287 165.916C167.287 166.078 167.28 166.243 167.271 166.414H161.663C161.663 168.348 162.686 169.313 164.731 169.313C165.572 169.313 166.315 169.196 166.969 168.964V169.596C166.315 169.831 165.572 169.948 164.731 169.948C162.194 169.948 160.923 168.691 160.923 166.17C160.923 163.648 162.032 162.559 164.251 162.559H164.254ZM161.666 165.754H166.579C166.55 164.036 165.779 163.179 164.258 163.179C162.616 163.179 161.752 164.036 161.67 165.754H161.666ZM170.056 167.856C170.056 166.389 171.031 165.655 172.983 165.655C173.673 165.655 174.409 165.7 175.194 165.795V164.89C175.194 163.76 174.482 163.191 173.06 163.191C172.253 163.191 171.45 163.309 170.653 163.544V162.909C171.45 162.677 172.253 162.556 173.06 162.556C174.974 162.556 175.93 163.321 175.93 164.849V169.942H175.483L175.311 169.209C174.39 169.698 173.492 169.942 172.625 169.942C170.913 169.942 170.056 169.247 170.056 167.853V167.856ZM172.983 166.287C171.523 166.287 170.796 166.802 170.796 167.834C170.796 168.866 171.402 169.31 172.625 169.31C173.526 169.31 174.384 169.072 175.194 168.593V166.427C174.409 166.332 173.673 166.287 172.983 166.287ZM179.474 169.945V162.559H180.001L180.093 163.785C180.833 162.969 181.659 162.559 182.57 162.559V163.15C181.687 163.15 180.9 163.579 180.211 164.436V169.945H179.474ZM190.578 169.733C189.969 169.875 189.315 169.945 188.61 169.945C186.123 169.945 184.878 168.669 184.878 166.109C184.878 163.741 186.123 162.556 188.61 162.556C189.315 162.556 189.969 162.626 190.578 162.769V163.401C189.924 163.261 189.289 163.188 188.679 163.188C186.685 163.188 185.688 164.163 185.688 166.109C185.688 168.243 186.685 169.31 188.679 169.31C189.289 169.31 189.924 169.24 190.578 169.097V169.733ZM193.595 169.945V159.882H194.332V163.36C195.195 162.823 196.081 162.556 196.986 162.556C198.784 162.556 199.679 163.474 199.679 165.306V169.942H198.939V165.001C198.939 163.81 198.275 163.213 196.948 163.213C196.062 163.213 195.189 163.525 194.332 164.15V169.939H193.595V169.945ZM203.823 169.066V169.945H202.873V169.066H203.823ZM210.44 169.945H209.653L214.203 159.882H215.083L219.659 169.945H218.776L217.283 166.57H213.057L213.346 165.935H217.01L214.597 160.46L210.44 169.945ZM222.32 169.945V162.559H222.847L222.939 163.502C223.882 162.877 224.806 162.559 225.711 162.559C227.508 162.559 228.404 163.334 228.404 164.89V169.948H227.664V164.868C227.664 163.769 227 163.22 225.673 163.22C224.787 163.22 223.914 163.531 223.056 164.157V169.945H222.32ZM231.071 162.559H231.922L234.669 169.228L237.371 162.559H238.187L234.98 170.164C234.434 171.504 233.618 172.343 232.532 172.676L232.312 172.085C233.167 171.774 233.818 171.098 234.269 170.06L231.074 162.559H231.071ZM240.143 162.559H240.896L242.486 169.053L244.83 162.559H245.373L247.777 168.91L249.402 162.559H250.126L248.199 169.945H247.434L245.103 163.648L242.81 169.945H242.016L240.146 162.559H240.143ZM252.965 169.945V159.882H253.702V163.36C254.566 162.823 255.452 162.556 256.357 162.556C258.154 162.556 259.049 163.474 259.049 165.306V169.942H258.309V165.001C258.309 163.81 257.646 163.213 256.318 163.213C255.432 163.213 254.559 163.525 253.702 164.15V169.939H252.965V169.945ZM265.568 162.559C267.591 162.559 268.601 163.677 268.601 165.916C268.601 166.078 268.594 166.243 268.585 166.414H262.977C262.977 168.348 264 169.313 266.045 169.313C266.886 169.313 267.629 169.196 268.283 168.964V169.596C267.629 169.831 266.886 169.948 266.045 169.948C263.507 169.948 262.237 168.691 262.237 166.17C262.237 163.648 263.346 162.559 265.565 162.559H265.568ZM262.98 165.754H267.893C267.864 164.036 267.093 163.179 265.572 163.179C263.93 163.179 263.066 164.036 262.984 165.754H262.98ZM271.792 169.945V162.559H272.319L272.411 163.785C273.151 162.969 273.977 162.559 274.888 162.559V163.15C274.005 163.15 273.218 163.579 272.529 164.436V169.945H271.792ZM280.524 162.559C282.547 162.559 283.557 163.677 283.557 165.916C283.557 166.078 283.551 166.243 283.541 166.414H277.933C277.933 168.348 278.956 169.313 281.001 169.313C281.842 169.313 282.585 169.196 283.239 168.964V169.596C282.585 169.831 281.842 169.948 281.001 169.948C278.464 169.948 277.193 168.691 277.193 166.17C277.193 163.648 278.302 162.559 280.521 162.559H280.524ZM277.936 165.754H282.849C282.82 164.036 282.049 163.179 280.528 163.179C278.886 163.179 278.022 164.036 277.94 165.754H277.936ZM287.593 168.647L286.539 171.704H285.799L286.856 168.647H287.593ZM293.617 169.948H292.829L297.379 159.886H298.259L302.835 169.948H301.952L300.46 166.573H296.233L296.522 165.938H300.186L297.773 160.464L293.617 169.948ZM305.496 169.948V162.562H306.023L306.115 163.506C307.058 162.88 307.982 162.562 308.887 162.562C310.684 162.562 311.58 163.337 311.58 164.893V169.952H310.84V164.871C310.84 163.772 310.176 163.223 308.849 163.223C307.963 163.223 307.09 163.534 306.232 164.16V169.948H305.496ZM314.247 162.562H315.098L317.845 169.231L320.547 162.562H321.363L318.156 170.168C317.61 171.508 316.794 172.346 315.708 172.679L315.489 172.089C316.343 171.777 316.994 171.101 317.445 170.063L314.25 162.562H314.247ZM323.992 161.365H324.513L324.646 162.562H326.863V163.194H324.713V167.859C324.713 168.831 325.069 169.313 325.78 169.313H326.863V169.948H325.796C324.596 169.948 323.995 169.285 323.995 167.957V161.365H323.992ZM330.673 159.886V160.73H329.794V159.886H330.673ZM330.604 162.559V169.945H329.864V162.559H330.604ZM334.287 169.945V162.559H334.814L334.89 163.487C335.646 162.871 336.462 162.559 337.345 162.559C338.51 162.559 339.26 162.896 339.606 163.572C340.454 162.896 341.317 162.559 342.187 162.559C343.839 162.559 344.664 163.379 344.664 165.014V169.945H343.924V165.014C343.924 163.817 343.343 163.22 342.181 163.22C341.251 163.22 340.485 163.541 339.879 164.179V169.948H339.139V164.896C339.139 163.782 338.539 163.223 337.338 163.223C336.465 163.223 335.697 163.544 335.024 164.182V169.952H334.287V169.945ZM351.183 162.559C353.206 162.559 354.216 163.677 354.216 165.916C354.216 166.078 354.209 166.243 354.2 166.414H348.592C348.592 168.348 349.615 169.313 351.659 169.313C352.501 169.313 353.244 169.196 353.898 168.964V169.596C353.244 169.831 352.501 169.948 351.659 169.948C349.122 169.948 347.852 168.691 347.852 166.17C347.852 163.648 348.96 162.559 351.18 162.559H351.183ZM348.595 165.754H353.508C353.479 164.036 352.707 163.179 351.186 163.179C349.545 163.179 348.681 164.036 348.598 165.754H348.595Z" fill="#666766"/>
<path d="M363.196 123.204V116.54H366.152C366.744 116.54 367.198 116.598 367.507 116.721C367.817 116.839 368.062 117.052 368.249 117.356C368.436 117.66 368.526 117.996 368.526 118.359C368.526 118.834 368.372 119.229 368.067 119.555C367.763 119.88 367.288 120.083 366.648 120.174C366.883 120.286 367.059 120.398 367.182 120.504C367.438 120.739 367.683 121.038 367.913 121.39L369.071 123.204H367.961L367.08 121.817C366.824 121.417 366.611 121.113 366.445 120.899C366.28 120.686 366.131 120.536 365.997 120.456C365.864 120.376 365.73 120.312 365.597 120.28C365.496 120.259 365.335 120.248 365.106 120.248H364.082V123.21H363.201L363.196 123.204ZM364.076 119.48H365.97C366.376 119.48 366.691 119.437 366.915 119.357C367.139 119.277 367.315 119.138 367.432 118.957C367.55 118.776 367.609 118.573 367.609 118.359C367.609 118.045 367.497 117.783 367.267 117.58C367.038 117.378 366.675 117.276 366.184 117.276H364.076V119.48Z" fill="#231F20"/>
<path d="M366.131 125.739C369.372 125.739 372 123.111 372 119.869C372 116.628 369.372 114 366.131 114C362.889 114 360.261 116.628 360.261 119.869C360.261 123.111 362.889 125.739 366.131 125.739Z" stroke="#231F20" stroke-miterlimit="10"/>
</svg>
